<?xml version="1.0" encoding="UTF-8"?>
<svg id="Layer_1" data-name="Layer 1" xmlns="http://www.w3.org/2000/svg" width="385.8" height="69.7" viewBox="0 0 687.13 149.28">
  <defs>
    <style>
      .cls-1 {
        fill: #e60033;
      }
    </style>
  </defs>
  <path class="cls-1" d="M202.14,56.95v5.47h-9.56v16h-6.86v-16h-9.56v-5.47h25.98Z"/>
  <path class="cls-1" d="M213.28,56.95v7.7h14.78v-7.7h6.86v21.47h-6.86v-7.76h-14.78v7.76h-6.86v-21.47h6.86Z"/>
  <path class="cls-1" d="M263.32,56.95v5.05h-17.32v3.12h16.45v4.73h-16.45v3.41h17.45v5.15h-23.89v-21.47h23.76Z"/>
  <path class="cls-1" d="M284.51,56.95h15.81q7.41,0,8.79.84c1.64,1,2.12,2.42,2.12,6.15,0,3.19-.32,4.41-1.48,5.28-.61.48-1.22.71-2.51.9,3.32.39,3.9,1.35,3.77,6.31v2h-6.44v-1.13c0-2.41-.13-3.19-.64-3.73-.45-.52-.93-.58-3.64-.58h-9.24v5.44h-6.54v-21.47ZM300.26,67.61q3.28-.06,3.73-.39c.51-.32.71-.97.71-2.32,0-1.45-.26-2.06-.93-2.35-.45-.19-.55-.19-3.51-.23h-9.21v5.28h9.21Z"/>
  <path class="cls-1" d="M339.05,56.95v5.05h-17.32v3.12h16.45v4.73h-16.45v3.41h17.45v5.15h-23.89v-21.47h23.76Z"/>
  <path class="cls-1" d="M342.86,56.95h15.49c5.47,0,6.21.03,8.05.42,2.12.42,3.54,1.64,4.19,3.64.48,1.51.61,2.87.61,6.38,0,5.6-.48,7.79-2.06,9.24-1.64,1.48-3.54,1.8-10.79,1.8h-15.49v-21.47ZM358.41,72.96c5.92,0,6.34-.32,6.34-5.18,0-2.64-.23-3.83-.87-4.54-.68-.77-1.55-.9-5.54-.9h-9.05v10.62h9.11Z"/>
  <path class="cls-1" d="M375.38,56.95h14.71c4.06,0,4.64.03,5.83.19,4.06.61,5.22,2.35,5.22,7.86,0,4.77-.87,6.63-3.45,7.57-1.45.48-2.9.61-7.53.61h-8.24v5.25h-6.54v-21.47ZM390.09,67.81c3.03-.03,3.15-.03,3.7-.35.61-.39.8-.97.8-2.45s-.29-2.19-1.13-2.48c-.45-.16-.51-.16-3.38-.19h-8.18v5.47h8.18Z"/>
  <path class="cls-1" d="M423.35,74.79h-14.2l-1.83,3.64h-7.47l11.37-21.47h10.17l11.24,21.47h-7.44l-1.84-3.64ZM416.92,61.94h-1.29l-4.15,8.15h9.59l-4.15-8.15Z"/>
  <path class="cls-1" d="M454.52,56.95v5.47h-9.56v16h-6.86v-16h-9.56v-5.47h25.98Z"/>
  <path class="cls-1" d="M465.8,56.95v7.7h14.78v-7.7h6.86v21.47h-6.86v-7.76h-14.78v7.76h-6.86v-21.47h6.86Z"/>
  <path class="cls-1" d="M534.83,66.26v.58c0,2.12-.13,5.79-.23,6.83-.26,2.51-1.64,3.99-4.22,4.51-2.19.45-4.44.58-10.27.58-7.37,0-9.66-.29-11.46-1.51-1.9-1.25-2.25-2.83-2.25-9.88,0-10.04.93-10.72,14.84-10.72,7.98,0,10.95.52,12.36,2.22.9,1.06,1.16,2.38,1.19,5.54h-6.54c-.03-1.26-.1-1.51-.51-1.8-.64-.45-2.16-.58-7.05-.58-7.73,0-7.76.03-7.76,5.6,0,3.64.19,4.73.9,5.31.55.45,1.13.55,2.96.61l3.83.06c7.63,0,7.82-.06,7.82-2.45v-.61h-8.6v-4.28h14.97Z"/>
  <path class="cls-1" d="M539.69,56.95h15.81q7.41,0,8.79.84c1.64,1,2.12,2.42,2.12,6.15,0,3.19-.32,4.41-1.48,5.28-.61.48-1.22.71-2.51.9,3.32.39,3.9,1.35,3.77,6.31v2h-6.44v-1.13c0-2.41-.13-3.19-.64-3.73-.45-.52-.93-.58-3.64-.58h-9.24v5.44h-6.54v-21.47ZM555.44,67.61q3.28-.06,3.73-.39c.51-.32.71-.97.71-2.32,0-1.45-.26-2.06-.93-2.35-.45-.19-.55-.19-3.51-.23h-9.21v5.28h9.21Z"/>
  <path class="cls-1" d="M597.59,58.11c1.64,1.26,2.12,3.41,2.12,9.56s-.48,8.34-2.12,9.59c-1.64,1.26-3.67,1.48-12.56,1.48s-11.04-.23-12.68-1.48c-1.67-1.29-2.12-3.41-2.12-9.72s.48-8.18,2.12-9.43c1.64-1.26,3.64-1.48,12.62-1.48s10.98.23,12.62,1.48ZM577.27,63.56c-.39.74-.52,1.96-.52,4.7s.19,3.54.97,4.15c.87.68,1.9.77,7.31.77s6.31-.13,7.18-.77c.74-.58.97-1.51.97-4.12,0-3.19-.19-4.41-.77-5.12-.74-.87-1.45-.97-7.44-.97-6.44,0-7.05.1-7.69,1.35Z"/>
  <path class="cls-1" d="M610.63,56.95v9.88c.06,3.38.06,3.41.23,4.28.35,1.71,1.61,2.06,7.18,2.06,4.51,0,5.86-.19,6.57-.97.51-.55.68-1.13.77-3.16.03-.74.06-1.77.06-2.22v-9.88h6.54v9.88c-.1,4.86-.13,5.21-.32,6.73-.35,2.45-2,4.15-4.44,4.67-1.93.39-4.09.52-9.08.52-8.21,0-10.79-.45-12.4-2.16-1.06-1.09-1.42-2.42-1.58-5.57q-.03-.71-.06-4.18v-9.88h6.54Z"/>
  <path class="cls-1" d="M637.48,56.95h14.71c4.06,0,4.64.03,5.83.19,4.06.61,5.22,2.35,5.22,7.86,0,4.77-.87,6.63-3.44,7.57-1.45.48-2.9.61-7.53.61h-8.24v5.25h-6.54v-21.47ZM652.2,67.81c3.03-.03,3.16-.03,3.7-.35.61-.39.81-.97.81-2.45s-.29-2.19-1.13-2.48c-.45-.16-.52-.16-3.38-.19h-8.18v5.47h8.18Z"/>
  <g>
    <path d="M176.16,108.49v-14.88h2.97l3.52,10.54c.32.98.56,1.72.71,2.2.17-.53.43-1.34.79-2.37l3.56-10.37h2.65v14.88h-1.9v-12.46l-4.32,12.46h-1.78l-4.3-12.67v12.67h-1.9Z"/>
    <path d="M193.32,95.7v-2.1h1.83v2.1h-1.83ZM193.32,108.49v-10.78h1.83v10.78h-1.83Z"/>
    <path d="M197.93,108.49v-10.78h1.64v1.53c.79-1.19,1.93-1.78,3.43-1.78.65,0,1.25.11,1.79.35.55.23.95.53,1.22.91.27.39.46.84.57,1.36.07.34.1.93.1,1.77v6.63h-1.83v-6.56c0-.75-.07-1.3-.21-1.66-.14-.37-.39-.67-.76-.89-.36-.21-.79-.33-1.27-.33-.78,0-1.45.24-2.01.75-.57.49-.85,1.43-.85,2.81v5.89h-1.83Z"/>
    <path d="M209.5,95.7v-2.1h1.83v2.1h-1.83ZM209.5,108.49v-10.78h1.83v10.78h-1.83Z"/>
    <path d="M214.11,108.49v-10.78h1.64v1.53c.79-1.19,1.93-1.78,3.43-1.78.65,0,1.25.11,1.79.35.54.23.95.53,1.22.91.27.39.46.84.57,1.36.07.34.1.93.1,1.77v6.63h-1.83v-6.56c0-.75-.07-1.3-.22-1.66-.14-.37-.39-.67-.75-.89-.36-.21-.79-.33-1.27-.33-.78,0-1.45.24-2.01.75-.57.49-.85,1.43-.85,2.81v5.89h-1.83Z"/>
    <path d="M225.34,109.38l1.78.27c.07.55.28.95.62,1.2.45.34,1.07.5,1.86.5.85,0,1.5-.17,1.96-.5.46-.34.77-.82.93-1.42.1-.37.14-1.16.13-2.34-.8.93-1.79,1.4-2.98,1.4-1.48,0-2.63-.53-3.44-1.6-.81-1.07-1.22-2.35-1.22-3.85,0-1.02.19-1.98.56-2.85.37-.87.91-1.54,1.62-2.02.71-.47,1.54-.7,2.49-.7,1.27,0,2.32.51,3.15,1.54v-1.3h1.69v9.32c0,1.68-.17,2.86-.51,3.56-.34.7-.88,1.25-1.62,1.66-.74.4-1.65.61-2.74.61-1.29,0-2.33-.29-3.12-.87-.79-.58-1.17-1.46-1.15-2.62ZM226.85,102.91c0,1.41.28,2.44.84,3.09.56.65,1.27.98,2.11.98s1.54-.32,2.11-.97c.57-.65.85-1.66.85-3.04s-.29-2.32-.88-2.98c-.59-.67-1.29-1.01-2.12-1.01s-1.5.33-2.07.98c-.57.66-.85,1.64-.85,2.95Z"/>
    <path d="M253.87,103.27l1.97.5c-.41,1.62-1.16,2.85-2.23,3.7-1.07.85-2.38,1.27-3.93,1.27s-2.91-.33-3.91-.98c-1.01-.65-1.77-1.6-2.3-2.84-.52-1.24-.79-2.56-.79-3.98,0-1.55.29-2.9.89-4.06.59-1.15,1.44-2.03,2.53-2.63,1.09-.6,2.3-.9,3.61-.9,1.49,0,2.74.38,3.76,1.14,1.01.76,1.72,1.82,2.12,3.2l-1.94.46c-.34-1.08-.85-1.87-1.5-2.37-.66-.5-1.48-.75-2.48-.75-1.14,0-2.1.28-2.87.83-.77.54-1.31,1.28-1.62,2.21-.31.92-.47,1.88-.47,2.85,0,1.27.19,2.37.55,3.31.37.95.94,1.66,1.72,2.12.78.47,1.62.69,2.53.69,1.1,0,2.04-.31,2.8-.95.76-.64,1.28-1.58,1.56-2.83Z"/>
    <path d="M257.35,103.1c0-1.99.56-3.47,1.66-4.43.93-.8,2.06-1.2,3.39-1.2,1.48,0,2.69.49,3.64,1.46.94.97,1.41,2.31,1.41,4.02,0,1.39-.21,2.48-.62,3.27-.42.8-1.02,1.41-1.82,1.85-.8.43-1.66.66-2.6.66-1.51,0-2.73-.48-3.66-1.45-.93-.97-1.4-2.37-1.4-4.18ZM259.23,103.1c0,1.38.3,2.41.9,3.11.6.68,1.36,1.02,2.27,1.02s1.66-.34,2.27-1.03c.6-.69.9-1.75.9-3.16,0-1.33-.3-2.34-.91-3.03-.6-.69-1.36-1.03-2.26-1.03s-1.67.34-2.27,1.02c-.6.69-.9,1.72-.9,3.1Z"/>
    <path d="M269.59,108.49v-10.78h1.64v1.53c.79-1.19,1.94-1.78,3.43-1.78.65,0,1.25.11,1.79.35.54.23.95.53,1.22.91.27.39.46.84.57,1.36.06.34.1.93.1,1.77v6.63h-1.83v-6.56c0-.75-.07-1.3-.21-1.66-.14-.37-.4-.67-.76-.89-.36-.21-.79-.33-1.27-.33-.78,0-1.45.24-2.01.75-.57.49-.85,1.43-.85,2.81v5.89h-1.83Z"/>
    <path d="M285.15,106.85l.26,1.61c-.52.11-.98.17-1.38.17-.66,0-1.18-.1-1.55-.31-.36-.21-.62-.49-.77-.83-.15-.34-.23-1.06-.23-2.15v-6.21h-1.34v-1.42h1.34v-2.68l1.82-1.09v3.77h1.84v1.42h-1.84v6.3c0,.53.03.86.1,1.01.07.14.17.27.31.36.15.08.36.13.63.13.2,0,.47-.03.8-.08Z"/>
    <path d="M286.92,108.49v-10.78h1.64v1.63c.42-.76.81-1.26,1.16-1.5.36-.25.75-.37,1.17-.37.62,0,1.24.2,1.88.59l-.63,1.69c-.44-.27-.89-.4-1.34-.4-.4,0-.76.12-1.08.37-.32.24-.54.57-.68,1-.2.65-.31,1.35-.31,2.13v5.64h-1.83Z"/>
    <path d="M300.9,107.17c-.68.57-1.33.98-1.95,1.21-.63.24-1.3.35-2.02.35-1.18,0-2.09-.28-2.73-.87-.64-.57-.95-1.31-.95-2.21,0-.53.12-1.01.36-1.44.24-.44.56-.79.94-1.05.39-.27.83-.47,1.31-.6.36-.09.9-.18,1.62-.27,1.48-.18,2.56-.4,3.26-.63,0-.25,0-.41,0-.47,0-.75-.17-1.27-.52-1.58-.47-.41-1.16-.62-2.08-.62-.86,0-1.49.15-1.9.45-.41.31-.71.84-.91,1.6l-1.79-.25c.16-.76.43-1.37.8-1.85.37-.47.91-.83,1.62-1.09.7-.25,1.52-.37,2.45-.37s1.67.11,2.24.33c.57.21,1,.48,1.27.82.27.33.46.74.57,1.24.06.31.09.87.09,1.69v2.43c0,1.7.04,2.77.12,3.23.08.45.23.88.46,1.29h-1.91c-.19-.38-.31-.82-.36-1.32ZM300.75,103.08c-.66.27-1.66.5-2.99.69-.75.11-1.28.23-1.59.37-.31.13-.55.34-.72.6-.17.25-.25.54-.25.86,0,.49.19.89.55,1.22.37.32.91.48,1.62.48s1.33-.15,1.88-.46c.55-.31.95-.73,1.21-1.26.2-.41.3-1.02.3-1.83v-.66Z"/>
    <path d="M312.46,104.54l1.8.23c-.2,1.24-.7,2.21-1.51,2.92-.81.7-1.8,1.05-2.98,1.05-1.48,0-2.66-.48-3.56-1.44-.9-.97-1.35-2.35-1.35-4.14,0-1.17.19-2.19.58-3.06.39-.88.97-1.53,1.76-1.96.79-.44,1.65-.66,2.57-.66,1.17,0,2.13.29,2.87.89.74.6,1.22,1.44,1.43,2.52l-1.78.28c-.17-.72-.47-1.27-.9-1.64-.43-.36-.95-.54-1.56-.54-.92,0-1.67.33-2.24.98-.58.66-.86,1.71-.86,3.14s.28,2.5.83,3.16c.56.65,1.28.98,2.17.98.72,0,1.32-.22,1.8-.66.48-.44.79-1.11.91-2.03Z"/>
    <path d="M319.81,106.85l.26,1.61c-.52.11-.97.17-1.38.17-.67,0-1.18-.1-1.55-.31-.36-.21-.62-.49-.77-.83s-.23-1.06-.23-2.15v-6.21h-1.34v-1.42h1.34v-2.68l1.82-1.09v3.77h1.84v1.42h-1.84v6.3c0,.53.03.86.1,1.01.06.14.17.27.31.36.15.08.35.13.63.13.2,0,.47-.03.8-.08Z"/>
    <path d="M320.92,103.1c0-1.99.56-3.47,1.67-4.43.93-.8,2.06-1.2,3.39-1.2,1.49,0,2.69.49,3.64,1.46.94.97,1.41,2.31,1.41,4.02,0,1.39-.21,2.48-.62,3.27-.41.8-1.02,1.41-1.82,1.85-.8.43-1.66.66-2.61.66-1.51,0-2.73-.48-3.66-1.45-.93-.97-1.4-2.37-1.4-4.18ZM322.8,103.1c0,1.38.3,2.41.9,3.11.6.68,1.36,1.02,2.27,1.02s1.67-.34,2.27-1.03c.6-.69.9-1.75.9-3.16,0-1.33-.3-2.34-.91-3.03-.6-.69-1.36-1.03-2.26-1.03s-1.67.34-2.27,1.02c-.6.69-.9,1.72-.9,3.1Z"/>
    <path d="M333.14,108.49v-10.78h1.65v1.63c.42-.76.81-1.26,1.16-1.5.36-.25.75-.37,1.18-.37.62,0,1.24.2,1.87.59l-.63,1.69c-.44-.27-.9-.4-1.34-.4-.4,0-.76.12-1.08.37-.32.24-.54.57-.68,1-.2.65-.3,1.35-.3,2.13v5.64h-1.83Z"/>
    <path d="M339.36,105.27l1.81-.28c.1.72.39,1.27.85,1.66.47.39,1.11.58,1.95.58s1.46-.17,1.87-.51c.4-.34.6-.74.6-1.2,0-.42-.18-.74-.54-.98-.25-.16-.87-.37-1.86-.62-1.34-.34-2.27-.63-2.79-.89-.52-.24-.91-.59-1.18-1.02-.26-.43-.4-.92-.4-1.44,0-.48.11-.92.33-1.34.22-.41.52-.75.9-1.02.29-.21.67-.39,1.17-.53.49-.14,1.01-.21,1.58-.21.85,0,1.59.11,2.23.37.64.24,1.11.56,1.41.99.3.41.51.97.63,1.66l-1.79.24c-.08-.56-.31-.99-.71-1.3-.39-.31-.94-.47-1.65-.47-.84,0-1.44.14-1.8.41-.36.28-.54.6-.54.98,0,.24.07.44.22.64.15.2.38.35.7.49.18.06.72.22,1.61.47,1.3.34,2.2.63,2.71.84.51.22.91.55,1.2.96.29.43.44.95.44,1.56s-.18,1.18-.54,1.72c-.35.53-.87.95-1.54,1.25-.67.29-1.43.44-2.27.44-1.4,0-2.47-.29-3.2-.87-.74-.58-1.21-1.45-1.41-2.59Z"/>
    <path d="M363.3,107.17c-.68.57-1.33.98-1.95,1.21-.63.24-1.3.35-2.01.35-1.19,0-2.1-.28-2.74-.87-.63-.57-.95-1.31-.95-2.21,0-.53.12-1.01.36-1.44.24-.44.55-.79.95-1.05.39-.27.83-.47,1.31-.6.36-.09.9-.18,1.63-.27,1.47-.18,2.56-.4,3.26-.63,0-.25,0-.41,0-.47,0-.75-.17-1.27-.52-1.58-.47-.41-1.16-.62-2.08-.62-.86,0-1.49.15-1.9.45-.41.31-.71.84-.91,1.6l-1.79-.25c.17-.76.43-1.37.81-1.85.37-.47.91-.83,1.61-1.09.7-.25,1.52-.37,2.45-.37s1.67.11,2.25.33c.57.21,1,.48,1.27.82.27.33.46.74.56,1.24.06.31.09.87.09,1.69v2.43c0,1.7.04,2.77.12,3.23.07.45.23.88.46,1.29h-1.9c-.19-.38-.31-.82-.37-1.32ZM363.14,103.08c-.66.27-1.66.5-2.99.69-.75.11-1.28.23-1.59.37-.31.13-.56.34-.73.6-.17.25-.25.54-.25.86,0,.49.18.89.55,1.22.37.32.91.48,1.62.48s1.33-.15,1.88-.46c.55-.31.95-.73,1.21-1.26.19-.41.29-1.02.29-1.83v-.66Z"/>
    <path d="M367.83,108.49v-10.78h1.64v1.53c.79-1.19,1.93-1.78,3.43-1.78.65,0,1.25.11,1.79.35.55.23.95.53,1.23.91.27.39.46.84.57,1.36.07.34.1.93.1,1.77v6.63h-1.83v-6.56c0-.75-.07-1.3-.21-1.66-.14-.37-.4-.67-.75-.89-.36-.21-.79-.33-1.27-.33-.78,0-1.45.24-2.02.75-.57.49-.85,1.43-.85,2.81v5.89h-1.82Z"/>
    <path d="M386.39,108.49v-1.36c-.68,1.08-1.69,1.6-3.02,1.6-.86,0-1.65-.24-2.37-.71-.72-.47-1.28-1.14-1.68-1.98-.4-.85-.6-1.82-.6-2.93s.18-2.05.54-2.93c.36-.87.9-1.54,1.62-2.01.71-.47,1.52-.7,2.41-.7.65,0,1.23.14,1.73.41.51.27.92.63,1.24,1.07v-5.34h1.82v14.88h-1.69ZM380.61,103.1c0,1.38.29,2.42.88,3.1.58.68,1.27,1.02,2.06,1.02s1.48-.33,2.03-.98c.56-.65.84-1.65.84-2.98,0-1.48-.29-2.56-.86-3.26-.56-.68-1.27-1.03-2.1-1.03s-1.49.33-2.03,1c-.54.66-.82,1.7-.82,3.13Z"/>
    <path d="M397,108.49v-14.88h10.76v1.76h-8.79v4.56h8.24v1.74h-8.24v5.07h9.14v1.76h-11.11Z"/>
    <path d="M410.6,108.49v-10.78h1.64v1.53c.8-1.19,1.93-1.78,3.44-1.78.64,0,1.25.11,1.79.35.55.23.95.53,1.23.91.27.39.46.84.57,1.36.07.34.1.93.1,1.77v6.63h-1.82v-6.56c0-.75-.08-1.3-.22-1.66-.15-.37-.4-.67-.76-.89-.36-.21-.79-.33-1.27-.33-.78,0-1.45.24-2.02.75-.56.49-.85,1.43-.85,2.81v5.89h-1.83Z"/>
    <path d="M421.83,109.38l1.78.27c.07.55.28.95.61,1.2.46.34,1.07.5,1.86.5.85,0,1.5-.17,1.96-.5.46-.34.77-.82.93-1.42.1-.37.14-1.16.13-2.34-.8.93-1.79,1.4-2.99,1.4-1.48,0-2.63-.53-3.44-1.6-.81-1.07-1.22-2.35-1.22-3.85,0-1.02.19-1.98.56-2.85.37-.87.91-1.54,1.62-2.02.7-.47,1.53-.7,2.49-.7,1.27,0,2.32.51,3.15,1.54v-1.3h1.68v9.32c0,1.68-.17,2.86-.51,3.56-.35.7-.88,1.25-1.63,1.66-.74.4-1.65.61-2.73.61-1.29,0-2.33-.29-3.12-.87-.79-.58-1.17-1.46-1.15-2.62ZM423.34,102.91c0,1.41.28,2.44.84,3.09.56.65,1.27.98,2.11.98s1.54-.32,2.11-.97c.56-.65.85-1.66.85-3.04s-.29-2.32-.88-2.98c-.59-.67-1.29-1.01-2.12-1.01s-1.5.33-2.07.98c-.57.66-.85,1.64-.85,2.95Z"/>
    <path d="M433.74,95.7v-2.1h1.83v2.1h-1.83ZM433.74,108.49v-10.78h1.83v10.78h-1.83Z"/>
    <path d="M438.35,108.49v-10.78h1.64v1.53c.79-1.19,1.94-1.78,3.43-1.78.65,0,1.25.11,1.79.35.54.23.96.53,1.22.91.27.39.46.84.57,1.36.07.34.1.93.1,1.77v6.63h-1.82v-6.56c0-.75-.07-1.3-.21-1.66-.14-.37-.4-.67-.76-.89-.37-.21-.79-.33-1.27-.33-.78,0-1.45.24-2.02.75-.56.49-.85,1.43-.85,2.81v5.89h-1.83Z"/>
    <path d="M457.29,105.02l1.89.23c-.3,1.1-.85,1.96-1.65,2.56-.81.61-1.84.92-3.09.92-1.57,0-2.82-.48-3.75-1.45-.93-.98-1.39-2.34-1.39-4.09s.47-3.22,1.4-4.22c.93-1.01,2.14-1.5,3.63-1.5s2.62.49,3.53,1.47c.91.98,1.37,2.36,1.37,4.14,0,.1,0,.27,0,.48h-8.05c.07,1.18.4,2.09,1.01,2.73.6.62,1.35.94,2.25.94.67,0,1.24-.18,1.72-.53.48-.35.85-.92,1.13-1.68ZM451.3,102.06h6.02c-.08-.9-.31-1.59-.69-2.04-.58-.7-1.34-1.05-2.26-1.05-.84,0-1.55.28-2.12.84-.57.56-.89,1.31-.95,2.25Z"/>
    <path d="M468.86,105.02l1.89.23c-.29,1.1-.85,1.96-1.65,2.56-.81.61-1.83.92-3.09.92-1.57,0-2.83-.48-3.75-1.45-.92-.98-1.38-2.34-1.38-4.09s.47-3.22,1.4-4.22c.93-1.01,2.14-1.5,3.63-1.5s2.62.49,3.53,1.47c.91.98,1.37,2.36,1.37,4.14,0,.1,0,.27-.01.48h-8.04c.07,1.18.4,2.09,1.01,2.73.6.62,1.36.94,2.25.94.67,0,1.24-.18,1.72-.53.48-.35.85-.92,1.13-1.68ZM462.86,102.06h6.02c-.08-.9-.31-1.59-.69-2.04-.59-.7-1.34-1.05-2.26-1.05-.84,0-1.55.28-2.12.84-.57.56-.89,1.31-.95,2.25Z"/>
    <path d="M473.02,108.49v-10.78h1.64v1.63c.42-.76.81-1.26,1.16-1.5.35-.25.74-.37,1.17-.37.62,0,1.24.2,1.88.59l-.63,1.69c-.45-.27-.89-.4-1.34-.4-.4,0-.75.12-1.08.37-.32.24-.54.57-.68,1-.2.65-.31,1.35-.31,2.13v5.64h-1.82Z"/>
    <path d="M479.23,105.27l1.81-.28c.1.72.38,1.27.85,1.66.46.39,1.11.58,1.94.58s1.46-.17,1.87-.51c.4-.34.61-.74.61-1.2,0-.42-.18-.74-.54-.98-.25-.16-.87-.37-1.87-.62-1.34-.34-2.27-.63-2.78-.89-.52-.24-.91-.59-1.18-1.02-.26-.43-.4-.92-.4-1.44,0-.48.11-.92.33-1.34.22-.41.52-.75.89-1.02.29-.21.68-.39,1.16-.53.49-.14,1.02-.21,1.58-.21.85,0,1.6.11,2.23.37.64.24,1.11.56,1.41.99.31.41.52.97.63,1.66l-1.79.24c-.08-.56-.32-.99-.71-1.3-.39-.31-.94-.47-1.65-.47-.84,0-1.44.14-1.8.41-.36.28-.54.6-.54.98,0,.24.08.44.23.64.15.2.38.35.7.49.18.06.72.22,1.61.47,1.29.34,2.2.63,2.71.84.51.22.91.55,1.2.96.29.43.44.95.44,1.56s-.18,1.18-.53,1.72c-.36.53-.87.95-1.54,1.25-.67.29-1.43.44-2.27.44-1.4,0-2.47-.29-3.2-.87-.73-.58-1.2-1.45-1.4-2.59Z"/>
  </g>
  <g>
    <g>
      <path class="cls-1" d="M27.42,127.27v-12.91h9.45c2.22,0,3.55.03,3.99.07.44.04.86.19,1.27.44.49.3.82.7,1.01,1.22.18.52.27,1.34.27,2.45,0,.94-.06,1.63-.17,2.07-.12.44-.33.79-.65,1.06-.35.28-.87.48-1.56.59.82.06,1.41.3,1.77.71.21.25.34.54.39.89.06.35.09,1.08.09,2.2v1.2h-3.85v-.69c0-.72-.03-1.23-.08-1.53-.05-.31-.15-.54-.3-.71-.14-.15-.34-.25-.6-.29-.25-.04-.79-.06-1.59-.06h-5.51v3.28h-3.91ZM31.33,120.76h5.5c.96-.02,1.53-.04,1.72-.05.19-.01.34-.06.48-.15.17-.11.29-.26.36-.48.07-.21.1-.53.1-.96s-.04-.74-.12-.95c-.08-.21-.21-.36-.41-.45-.14-.06-.3-.1-.49-.11-.19-.01-.74-.02-1.64-.03h-5.49v3.18Z"/>
      <path class="cls-1" d="M45.75,114.35h14.22v3.04h-10.36v1.87h9.84v2.83h-9.84v2.08h10.44v3.1h-14.29v-12.91Z"/>
      <path class="cls-1" d="M62.25,127.27v-12.91h9.26c1.64,0,2.72.01,3.22.04.51.02,1.04.09,1.59.21,1.28.27,2.12,1,2.51,2.2.14.45.24.94.29,1.46.05.52.08,1.31.08,2.36,0,1.15-.03,2.03-.09,2.62-.06.59-.17,1.13-.33,1.62-.38,1.14-1.17,1.84-2.36,2.1-.56.12-1.15.21-1.79.25-.63.04-1.67.06-3.11.06h-9.27ZM66.1,123.97h5.44c1,0,1.74-.03,2.21-.1.47-.06.81-.18,1-.34.21-.18.36-.47.45-.87.09-.39.13-.99.13-1.8s-.04-1.4-.11-1.81c-.08-.4-.21-.71-.4-.93-.21-.23-.52-.38-.93-.45-.4-.07-1.2-.1-2.4-.1h-5.41v6.39Z"/>
      <path class="cls-1" d="M81.5,127.27v-12.91h8.79c1.74,0,2.87.04,3.37.1,1.27.17,2.13.58,2.58,1.23.45.65.67,1.82.67,3.5s-.18,2.71-.56,3.36c-.25.44-.6.77-1.05.99-.45.23-1.07.38-1.85.48-.56.06-1.6.09-3.12.09h-4.92v3.16h-3.91ZM85.41,120.88h4.89c.89,0,1.43-.02,1.63-.04.2-.02.37-.07.53-.15.2-.11.34-.27.41-.49.07-.22.11-.56.11-1.02s-.05-.8-.14-1.01c-.09-.21-.26-.37-.5-.46-.18-.07-.86-.11-2.05-.13h-4.89v3.3Z"/>
      <path class="cls-1" d="M111.5,127.27l-1.1-2.19h-8.49l-1.1,2.19h-4.47l6.81-12.91h6.08l6.71,12.91h-4.44ZM109.02,122.25l-2.48-4.89h-.78l-2.48,4.89h5.73Z"/>
      <path class="cls-1" d="M112.71,114.35h15.53v3.29h-5.71v9.62h-4.11v-9.62h-5.72v-3.29Z"/>
      <path class="cls-1" d="M130.11,114.35h4.11v4.61h8.83v-4.61h4.11v12.91h-4.11v-4.69h-8.83v4.69h-4.11v-12.91Z"/>
    </g>
    <g>
      <path class="cls-1" d="M45.37,62.6c1.13-1.09,2.3-3.39,2.54-4.94,0,0,2.66,3.91,3.29,4.84l-5.83.1"/>
      <path class="cls-1" d="M27.74,69.16c-.51-1.08-1.74-2.92-2.54-3.81,0,0,10.87,5.49,19.6-2.16l6.93.12s2.77,4.28,4.29,5.5l-28.28.35Z"/>
      <path class="cls-1" d="M115.6,96.41l17.48-.45,2.64,5.98-19.02-.89-1.68-.84c-.64-.37-1.85-.66-2.59-.62h-6.97l-.76-1.73h5.53c.48.02,1.34-.12,1.79-.29l3.56-1.17Z"/>
      <path class="cls-1" d="M102.15,40.85h-5.22c-.48-.02-1.34.12-1.8.29l-3.56,1.17-.61.2-32.06.42-1.05-5.81s11.71,8.28,17.96-.16l10.75.36s4.9,7.89,18.14-.36l-1.07,4.09c-.37-.11-1.09-.21-1.48-.19"/>
      <path class="cls-1" d="M62.88,96.54l-16.84-.57s4.38,1.33,1.14,5.98l13.2-.62,3.56-1.17c.45-.17,1.31-.3,1.8-.29h5.22c.74-.04,1.95.25,2.59.61l1.68.84,18.93.62,3.16-5.98-19.59.62-3.57,1.16c-.46.17-1.31.31-1.8.28l-5.22-.02c-.74.04-1.95-.25-2.59-.62l-1.67-.85Z"/>
      <path class="cls-1" d="M78.7,94.77l18.93.62,3.2-6.05-19.63.7-3.56,1.17c-.45.17-1.31.31-1.8.29h-5.22c-.74.04-1.95-.25-2.59-.62l-1.68-.84-42.46-.62,12.25,3.47,8.37,2.5,19.34-.67,3.57-1.16c.46-.17,1.31-.31,1.8-.28l5.22.02c.74-.04,1.95.25,2.59.62l1.67.85Z"/>
      <path class="cls-1" d="M80.21,63.8l-17.6-.31s.63,2.86.04,5.23l15.06-.19,3.56-1.17c.45-.17,1.31-.31,1.8-.29h5.22c.74-.04,1.95.25,2.59.61l1.68.84,19.15.21,2.73-5.17-19.38.22-3.56,1.17c-.46.17-1.31.31-1.8.29h-5.22c-.74.04-1.95-.25-2.59-.62l-1.68-.84Z"/>
      <path class="cls-1" d="M90.61,44.13l-31.61-.62,1.08,5.98,28.02-.61,3.56-1.17c.45-.17,1.31-.31,1.8-.29h5.22c.73-.04,1.95.25,2.59.61l1.68.84,43.73.61c-4.43-4.94-13.01-4.62-13.01-4.62h-30.47s-1.31.44-1.31.44c-.45.17-1.31.31-1.8.29h-5.22c-.74.04-1.95-.25-2.59-.61l-1.68-.84Z"/>
      <path class="cls-1" d="M74.27,103.14l19.59-.62-3.16,5.98h-17.7l-1.23-.62-1.68-.84c-.64-.37-1.85-.66-2.59-.62h-5.22c-.49-.02-1.34.12-1.8.29l-3.56,1.17-1.89.62h-13.86c1.62-1.36,4.34-4.26,5.6-5.97l12.65.62,1.68.84c.64.37,1.85.66,2.59.62h5.22c.49.02,1.34-.12,1.8-.29l3.56-1.17"/>
      <path class="cls-1" d="M79.34,29.81c.67-1.95,1.5-5.74,1.7-7.8.2,2.03,1.01,5.77,1.67,7.69l-3.36.11Z"/>
      <path class="cls-1" d="M79.15,30.4l3.83.13c.46,1.55,1.74,4.21,2.66,5.53l-9.42.31c1.03-1.42,2.43-4.29,2.92-5.97Z"/>
      <path class="cls-1" d="M69.82,83.48l-40.59-.62c-.5,2.11-2.49,4.85-4.35,5.98l42.43-.62,3.56-1.17c.45-.17,1.31-.3,1.8-.29h5.22c.74-.04,1.95.25,2.59.61l1.68.84,47.76.62-.91-2.07s-.02-.04-.02-.05c-.14-.38.06-.79.44-.93,1.66-.54,4.59-1.96,6.05-2.93l-50.81.62-3.56,1.17c-.45.17-1.31.31-1.8.29h-5.22c-.74.04-1.95-.25-2.59-.62l-1.68-.84Z"/>
      <path class="cls-1" d="M85.63,81.65l50.76.62c2.03-1.24,5.27-4.11,6.76-5.97l-55.01.62-3.56,1.17c-.46.17-1.31.3-1.8.29h-5.22c-.74.04-1.95-.25-2.59-.61l-1.68-.84-43.41-.62c.24,1.6.02,4.43-.46,5.97l41.38-.62,3.56-1.17c.46-.17,1.31-.31,1.8-.29h5.22c.74-.04,1.95.25,2.59.62l1.68.84Z"/>
      <path class="cls-1" d="M76.75,70.36l-14.87-.19c-1.54,1.46-4.11-.05-4.11-.05l-29.74-.38c.78,1.47,1.62,4.32,1.77,5.97l44.44-.62,3.56-1.17c.46-.17,1.31-.31,1.8-.29h5.22c.74-.04,1.95.25,2.59.61l1.68.84,54.54.62c1.22-1.4,3.09-4.29,3.88-5.97l-55.91.62-3.56,1.17c-.45.17-1.31.31-1.8.29h-5.22c-.74.04-1.95-.25-2.59-.62l-1.68-.84"/>
      <path class="cls-1" d="M98.52,57.24l51.49-.62c.28,1.57.22,4.42-.13,5.97l-53.87-.62-1.68-.84c-.64-.37-1.85-.65-2.59-.61h-5.22c-.48-.02-1.34.12-1.8.29l-3.56,1.17-18.78.32-1.03-5.68,22.31.62,1.68.84c.64.37,1.85.65,2.59.61h5.22c.49.02,1.34-.12,1.8-.29l3.56-1.17Z"/>
      <path class="cls-1" d="M84.64,55.42l-23.37.62-1.08-5.97,26.95.63,1.68.84c.64.36,1.85.65,2.59.61h5.22c.49.02,1.34-.12,1.8-.29l3.56-1.17,45.21-.63c1.24,1.36,2.51,4.14,2.73,5.97l-50.43-.62-1.68-.84c-.64-.37-1.85-.65-2.59-.61h-5.22c-.49-.02-1.34.12-1.8.29l-3.56,1.17Z"/>
      <path class="cls-1" d="M125.42,65.67h-8.68l-.96,1.81h8.05c.74-.04,1.95.25,2.59.61l1.68.84,19.69.22c.76-1.47,1.72-4.35,2-5.97l-17.12.19-5.25,1.94c-.5.21-1.45.38-1.99.36Z"/>
      <path class="cls-1" d="M107.42,91.48h-5.54l.76,1.72h6.97c.73-.04,1.95.25,2.59.61l1.68.84,18.95.72-2.64-5.97-17.43.53-3.53,1.25c-.45.17-1.31.3-1.8.29Z"/>
      <path class="cls-1" d="M115.39,106.25h-6.97l-.76-1.73h5.66c.49.02,1.34-.12,1.8-.29l3.33-1.4,17.55-.3,2.64,5.98h-17.45l-1.46-.62-1.75-1.02c-.64-.36-1.85-.65-2.59-.61"/>
    </g>
  </g>
</svg>